<svg xmlns="http://www.w3.org/2000/svg" version="1.1" xmlns:xlink="http://www.w3.org/1999/xlink" xmlns:svgjs="http://svgjs.dev/svgjs" width="2000" height="1500" viewBox="0 0 2000 1500"><rect width="2000" height="1500" fill="#f9fe09"></rect><g transform="matrix(0.75,0,0,0.75,249.78667664670684,-0.21332335329350371)"><svg viewBox="0 0 334 334" data-background-color="#f9fe09" preserveAspectRatio="xMidYMid meet" height="2000" width="2000" xmlns="http://www.w3.org/2000/svg" xmlns:xlink="http://www.w3.org/1999/xlink"><g id="tight-bounds" transform="matrix(1,0,0,1,0.04749999999998522,0.04750000000001364)"><svg viewBox="0 0 333.90454557049503 333.90454557049503" height="333.90454557049503" width="333.90454557049503"><g><svg></svg></g><g><svg viewBox="0 0 333.90454557049503 333.90454557049503" height="333.90454557049503" width="333.90454557049503"><g><path d="M0 166.952c0-92.205 74.747-166.952 166.952-166.952 92.205 0 166.952 74.747 166.953 166.952 0 92.205-74.747 166.952-166.953 166.953-92.205 0-166.952-74.747-166.952-166.953zM166.952 323.795c86.622 0 156.843-70.221 156.843-156.843 0-86.622-70.221-156.843-156.843-156.842-86.622 0-156.843 70.221-156.842 156.842 0 86.622 70.221 156.843 156.842 156.843z" data-fill-palette-color="tertiary" fill="#000000" stroke="transparent"></path><ellipse rx="160.27418187383762" ry="160.27418187383762" cx="166.95227278524752" cy="166.95227278524752" fill="#000000" stroke="transparent" stroke-width="0" fill-opacity="1" data-fill-palette-color="tertiary"></ellipse></g><g transform="matrix(1,0,0,1,80.24097105048399,71.17305217166896)"><svg viewBox="0 0 173.42260346952705 191.55844122715712" height="191.55844122715712" width="173.42260346952705"><g><svg viewBox="0 0 173.42260346952705 191.55844122715712" height="191.55844122715712" width="173.42260346952705"><g><svg viewBox="0 0 213.15844122715714 235.4496929407455" height="191.55844122715712" width="173.42260346952705"><g><svg viewBox="0 0 213.15844122715714 235.4496929407455" height="235.4496929407455" width="213.15844122715714"><g id="textblocktransform"><svg viewBox="0 0 213.15844122715714 235.4496929407455" height="235.4496929407455" width="213.15844122715714" id="textblock"><g><svg viewBox="0 0 213.15844122715714 137.788362813748" height="137.788362813748" width="213.15844122715714"><g transform="matrix(1,0,0,1,0,0)"><svg width="213.15844122715714" viewBox="3 -35.7 68.3 44.150000000000006" height="137.788362813748" data-palette-color="url(#15061419-4057-4815-b9fe-0c3c4f77ff26)"></svg></g></svg></g><g transform="matrix(1,0,0,1,0,170.31688835336638)"><svg viewBox="0 0 213.15844122715714 65.13280458737914" height="65.13280458737914" width="213.15844122715714"><g transform="matrix(1,0,0,1,0,0)"><svg width="213.15844122715714" viewBox="1.9499999999999997 -40.82 136.54000000000002 41.72" height="65.13280458737914" data-palette-color="url(#15061419-4057-4815-b9fe-0c3c4f77ff26)"></svg></g></svg></g></svg></g></svg></g><g></g></svg></g></svg></g></svg></g></svg></g><defs></defs><mask id="b7c07e8c-2547-495c-a167-ec34b691b549"><g id="SvgjsG3001"><svg viewBox="0 0 333.90454557049503 333.90454557049503" height="333.90454557049503" width="333.90454557049503"><g><svg></svg></g><g><svg viewBox="0 0 333.90454557049503 333.90454557049503" height="333.90454557049503" width="333.90454557049503"><g><path d="M0 166.952c0-92.205 74.747-166.952 166.952-166.952 92.205 0 166.952 74.747 166.953 166.952 0 92.205-74.747 166.952-166.953 166.953-92.205 0-166.952-74.747-166.952-166.953zM166.952 323.795c86.622 0 156.843-70.221 156.843-156.843 0-86.622-70.221-156.843-156.843-156.842-86.622 0-156.843 70.221-156.842 156.842 0 86.622 70.221 156.843 156.842 156.843z" fill="black" stroke="transparent"></path><ellipse rx="160.27418187383762" ry="160.27418187383762" cx="166.95227278524752" cy="166.95227278524752" fill="black" stroke="transparent" stroke-width="0" fill-opacity="1"></ellipse></g><g transform="matrix(1,0,0,1,80.24097105048399,71.17305217166896)"><svg viewBox="0 0 173.42260346952705 191.55844122715712" height="191.55844122715712" width="173.42260346952705"><g><svg viewBox="0 0 173.42260346952705 191.55844122715712" height="191.55844122715712" width="173.42260346952705"><g><svg viewBox="0 0 213.15844122715714 235.4496929407455" height="191.55844122715712" width="173.42260346952705"><g><svg viewBox="0 0 213.15844122715714 235.4496929407455" height="235.4496929407455" width="213.15844122715714"><g id="SvgjsG3000"><svg viewBox="0 0 213.15844122715714 235.4496929407455" height="235.4496929407455" width="213.15844122715714" id="SvgjsSvg2999"><g><svg viewBox="0 0 213.15844122715714 137.788362813748" height="137.788362813748" width="213.15844122715714"><g transform="matrix(1,0,0,1,0,0)"><svg width="213.15844122715714" viewBox="3 -35.7 68.3 44.150000000000006" height="137.788362813748" data-palette-color="url(#15061419-4057-4815-b9fe-0c3c4f77ff26)"><path d="M13.3-0.5L13.3-0.5 13.95-0.5 13.95 0 3 0 3-0.5 3.65-0.5Q4.95-0.5 5.88-1.43 6.8-2.35 6.85-3.65L6.85-3.65 6.85-31.4Q6.8-32.7 5.88-33.6 4.95-34.5 3.65-34.5L3.65-34.5 3-34.5 3-35 13.95-35 13.95-34.5 13.3-34.5Q12-34.5 11.08-33.6 10.15-32.7 10.1-31.4L10.1-31.4 10.1-3.65Q10.1-2.35 11.05-1.43 12-0.5 13.3-0.5ZM47.95 7.5L47.95 7.5 47.95 8Q46.05 8.45 44.15 8.45L44.15 8.45Q35.95 8.45 28.25 0.25L28.25 0.25 11.7-17.4 23.5-32.2Q23.9-32.7 23.9-33.1 23.9-33.5 23.75-33.8L23.75-33.8Q23.35-34.55 22.3-34.55L22.3-34.55 21.8-34.55 21.8-35 32.35-35 32.35-34.55 32.15-34.55Q28.85-34.55 26.75-32.2L26.75-32.2 15.1-18.75 32.1-0.6Q35.4 2.95 39.53 5.23 43.65 7.5 47.95 7.5ZM71.3-17.55L71.3-17.55Q71.3-8.95 66.67-4.13 62.05 0.7 53.6 0.7L53.6 0.7Q47.9 0.7 43.32-1.7 38.75-4.1 36.22-8.25 33.7-12.4 33.7-17.53 33.7-22.65 36.2-26.8 38.7-30.95 43.1-33.33 47.5-35.7 52.9-35.7L52.9-35.7Q56.3-35.7 59.82-34.77 63.35-33.85 65.7-32.3L65.7-32.3 66.7-25.25 66.25-25.25Q65.2-29.45 61.4-31.83 57.6-34.2 52.95-34.2L52.95-34.2Q46.3-34.2 41.87-29.48 37.45-24.75 37.45-17.6 37.45-10.45 42.02-5.63 46.6-0.8 54-0.8 61.4-0.8 66.07-5.6 70.75-10.4 70.75-18.75L70.75-18.75 71.25-18.75Q71.3-18.15 71.3-17.55Z" opacity="1" transform="matrix(1,0,0,1,0,0)" fill="white" class="wordmark-text-0" id="SvgjsPath2998"></path></svg></g></svg></g><g transform="matrix(1,0,0,1,0,170.31688835336638)"><svg viewBox="0 0 213.15844122715714 65.13280458737914" height="65.13280458737914" width="213.15844122715714"><g transform="matrix(1,0,0,1,0,0)"><svg width="213.15844122715714" viewBox="1.9499999999999997 -40.82 136.54000000000002 41.72" height="65.13280458737914" data-palette-color="url(#15061419-4057-4815-b9fe-0c3c4f77ff26)"><path d="M25.45-13.7Q25.63-13.77 26.05-14.06 26.46-14.36 26.86-14.58 27.25-14.79 27.69-15.23L27.69-15.23Q27.73-15.26 27.69-15.94L27.69-15.94 27.61-17.09Q27.37-21.83 26.03-24.61L26.03-24.61Q24.98-26.81 23.19-26.81L23.19-26.81Q18.26-26.81 17.53-20.8L17.53-20.8Q17.33-19.12 17.33-17.26 17.33-15.41 18.64-14.11 19.95-12.82 21.78-12.82 23.61-12.82 24.44-13.22 25.27-13.62 25.45-13.7ZM34.81-6.76L34.81-6.76Q36.21-5.05 36.04-4.82 35.86-4.59 35.47-4.21 35.08-3.83 33.74-2.84 32.4-1.86 30.93-1.1 29.47-0.34 27.19 0.28 24.9 0.9 22.56 0.9L22.56 0.9Q18.31 0.9 14.48-0.78 10.64-2.47 7.91-5.31 5.18-8.15 3.56-12.07 1.95-15.99 1.95-20.18 1.95-24.37 3.63-28.16 5.3-31.96 8.07-34.73 10.84-37.5 14.65-39.16 18.46-40.82 22.23-40.82 26-40.82 29.25-39.84L29.25-39.84Q35.67-37.92 39.95-32.65 44.24-27.39 44.24-20.29L44.24-20.29Q44.24-17.82 43.36-15.64 42.48-13.45 41.02-11.95 39.55-10.45 37.5-9.73 35.45-9.01 33.53-9.34 31.62-9.67 30.22-10.8 28.83-11.94 28.54-13.23L28.54-13.23 27.66-12.35Q24.54-9.38 20.04-9.4L20.04-9.4Q17.43-9.4 15.43-11.41 13.43-13.43 13.43-15.75 13.43-18.07 13.79-20.02L13.79-20.02Q14.6-24.24 17.07-27.19 19.53-30.13 23.63-30.13L23.63-30.13Q26.12-30.13 27.47-28.86 28.81-27.59 29.3-25.98L29.3-25.98Q30.44-22.31 30.68-20.04 30.91-17.77 31.01-16.99L31.01-16.99Q31.23-14.92 31.95-13.66 32.67-12.4 34.28-12.3L34.28-12.3Q37.13-12.13 38.93-14.43 40.72-16.72 40.72-19.6 40.72-22.49 39.87-24.96 39.01-27.44 37.38-29.65 35.74-31.86 33.56-33.59 31.37-35.33 28.5-36.34 25.63-37.35 22.56-37.35L22.56-37.35Q17.58-37.35 13.7-35.23 9.81-33.11 7.64-29.21 5.47-25.32 5.47-20.94 5.47-16.55 6.88-13.22 8.3-9.89 10.67-7.54 13.04-5.2 16.21-3.83 19.38-2.47 22.4-2.47 25.42-2.47 27.59-2.98L27.59-2.98Q30.69-3.71 33.01-5.57L33.01-5.57 34.28-6.59Q34.67-6.93 34.81-6.76ZM55.93 0.1L54.54-0.29Q53.81-0.46 52.93-0.74 52.05-1.03 51.8-1.03L51.8-1.03 51.51-1.03Q50.66-1.03 50.19-0.05L50.19-0.05Q50.17 0 50.14 0L50.14 0 49.44 0Q49.29 0 49.27-0.12L49.27-0.12 47.17-7.32Q47.04-7.84 47.9-7.84L47.9-7.84Q48.24-7.84 48.36-7.7 48.48-7.57 48.53-7.52 48.58-7.47 48.75-7.18L48.75-7.18Q51.98-3.2 58.2-3.2L58.2-3.2Q61.47-3.2 63.63-4.92 65.79-6.64 65.79-9.99L65.79-9.99Q65.79-12.23 65.07-13.34 64.35-14.45 63.89-15.01L63.89-15.01Q62.91-16.21 59.21-18.31 55.52-20.41 53.22-22.07L53.22-22.07Q47.36-26.29 47.36-30.76 47.36-35.23 50.16-37.67 52.95-40.11 57.57-40.11L57.57-40.11Q60.15-40.11 63.03-38.72L63.03-38.72Q64.4-38.06 65.04-37.84 65.67-37.62 65.92-38.1 66.16-38.57 66.21-38.57L66.21-38.57Q67.31-38.7 67.31-38.23L67.31-38.23 68.04-30.4Q68.04-30.18 66.92-30.18L66.92-30.18Q66.75-30.18 66.62-30.62L66.62-30.62Q65.87-33.11 63.08-34.75 60.3-36.4 57.52-36.4L57.52-36.4Q51.61-36.4 51.61-31.52L51.61-31.52Q51.61-27.98 58.01-24.46L58.01-24.46 62.64-21.97Q66.92-19.6 68.64-16.86 70.36-14.11 70.36-10.99L70.36-10.99 70.36-10.74Q69.75-6.54 68.89-5.03L68.89-5.03Q67.48-2.54 64.87-1.04 62.25 0.46 58.93 0.46L58.93 0.46Q57.1 0.39 55.93 0.1L55.93 0.1ZM86.81 0L86.81 0 74.53 0Q74.21 0 74.21-0.43 74.21-0.85 74.32-0.94 74.43-1.03 74.63-1.11 74.82-1.2 75.13-1.5 75.43-1.81 75.78-2.62 76.12-3.44 76.12-4.27L76.12-4.27 76.12-35.72Q76.12-37.5 74.95-38.67L74.95-38.67Q74.85-38.77 74.53-38.92 74.21-39.06 74.21-39.53 74.21-39.99 74.53-39.99L74.53-39.99 85.59-39.99Q91.55-39.99 96.99-36.77L96.99-36.77Q100.85-34.47 103.39-30.29 105.93-26.1 105.93-20.12L105.93-20.12Q105.93-16.31 104.51-12.68 103.1-9.06 100.64-6.25 98.19-3.44 94.56-1.72 90.94 0 86.81 0ZM80.85-35.6L80.85-4.74Q80.85-3.83 82.34-3.83L82.34-3.83 85.08-3.83Q94.99-3.86 98.85-10.6L98.85-10.6Q101.09-14.53 101.09-20.12L101.09-20.12Q101.09-26.93 97.33-31.37L97.33-31.37Q95.45-33.59 92.33-34.85 89.2-36.11 85.13-36.11L85.13-36.11 81.37-36.11Q81.17-36.11 81.01-35.96 80.85-35.82 80.85-35.6L80.85-35.6ZM116.79-23.93L132.19-23.93Q133.98-23.93 135.15-25.1L135.15-25.1Q135.25-25.2 135.39-25.51 135.54-25.83 136-25.83 136.47-25.83 136.47-25.51L136.47-25.51 136.47-18.43Q136.47-18.12 136.04-18.12 135.61-18.12 135.53-18.23 135.44-18.33 135.36-18.53 135.27-18.73 134.97-19.03 134.66-19.34 133.84-19.65 133.02-19.97 132.19-19.97L132.19-19.97 116.79-19.97 116.79-3.96 133-3.96Q135.76-3.96 136.38-4.43 137-4.91 137.26-5.27 137.52-5.64 137.65-5.64 137.79-5.64 138.14-5.52 138.49-5.4 138.49-5.3 138.49-5.2 138.15-4.35L138.15-4.35 137.37-2.37Q136.93-1.25 136.77-0.67 136.61-0.1 136.35 0L136.35 0 110.47 0Q110.15 0 110.15-0.43 110.15-0.85 110.26-0.94 110.37-1.03 110.56-1.11 110.76-1.2 111.06-1.5 111.37-1.81 111.71-2.62 112.05-3.44 112.05-4.27L112.05-4.27 112.05-35.72Q112.05-37.5 110.88-38.67L110.88-38.67Q110.78-38.77 110.47-38.92 110.15-39.06 110.15-39.53 110.15-39.99 110.47-39.99L110.47-39.99 136.35-39.99Q136.59-39.99 136.76-39.37 136.93-38.75 137.37-37.62L137.37-37.62 138.15-35.64Q138.49-34.79 138.49-34.69 138.49-34.59 138.14-34.47 137.79-34.35 137.68-34.35 137.57-34.35 137.44-34.48 137.32-34.62 137.16-34.85 137-35.08 136.38-35.56 135.76-36.04 133-36.04L133-36.04 116.79-36.04 116.79-23.93Z" opacity="1" transform="matrix(1,0,0,1,0,0)" fill="white" class="slogan-text-1" id="SvgjsPath2997"></path></svg></g></svg></g></svg></g></svg></g><g></g></svg></g></svg></g></svg></g></svg></g><defs><mask></mask></defs></svg><rect width="333.90454557049503" height="333.90454557049503" fill="black" stroke="none" visibility="hidden"></rect></g></mask><linearGradient x1="0.054" x2="0.941" y1="0.5" y2="0.5" id="15061419-4057-4815-b9fe-0c3c4f77ff26"><stop stop-color="#8c8c8c" offset="0"></stop><stop stop-color="#e3e4e5" offset="0.498"></stop><stop stop-color="#8c8c8c" offset="1"></stop></linearGradient><rect width="333.905" height="333.905" fill="url(#15061419-4057-4815-b9fe-0c3c4f77ff26)" mask="url(#b7c07e8c-2547-495c-a167-ec34b691b549)" data-fill-palette-color="quaternary"></rect></svg><rect width="333.90454557049503" height="333.90454557049503" fill="none" stroke="none" visibility="hidden"></rect></g></svg></g></svg>